<svg width="88" height="88" viewBox="0 0 88 88" fill="none" xmlns="http://www.w3.org/2000/svg">
<circle cx="44" cy="44" r="42" fill="red" stroke="white" stroke-width="4"/>
<g clip-path="url(#clip0)">
<path fill-rule="evenodd" clip-rule="evenodd" d="M53.4954 33.4956C52.7144 32.7145 51.4481 32.7145 50.667 33.4956L44 40.1626L37.333 33.4956C36.5519 32.7145 35.2856 32.7145 34.5046 33.4956L33.2924 34.7077C32.5113 35.4888 32.5113 36.7551 33.2924 37.5362L39.9594 44.2032L33.2924 50.8702C32.5113 51.6512 32.5113 52.9176 33.2924 53.6986L34.5046 54.9108C35.2856 55.6918 36.5519 55.6918 37.333 54.9108L44 48.2438L50.667 54.9108C51.4481 55.6918 52.7144 55.6918 53.4954 54.9108L54.7076 53.6986C55.4887 52.9176 55.4887 51.6512 54.7076 50.8702L48.0406 44.2032L54.7076 37.5362C55.4887 36.7551 55.4887 35.4888 54.7076 34.7077L53.4954 33.4956Z" fill="white"/>
</g>
<defs>
<clipPath id="clip0">
<rect width="30.4762" height="30.4762" fill="white" transform="translate(28.7617 28.762)"/>
</clipPath>
</defs>
</svg>
